<svg width="200" height="44" viewBox="0 0 200 44" fill="none" xmlns="http://www.w3.org/2000/svg">
<path d="M58 37.4152V8.46709H77.4888V13.9392H64.4963V19.6203H76.0313V24.9671H64.4963V31.943H78.4466V37.4152H58Z" fill="#322153"/>
<path d="M81.3086 26.4291C81.3086 24.8418 81.5584 23.3519 82.0582 21.9595C82.5856 20.5392 83.3352 19.3139 84.3069 18.2835C85.2785 17.2253 86.4584 16.3899 87.8465 15.7772C89.2346 15.1646 90.817 14.8582 92.5938 14.8582C93.7598 14.8582 94.8286 14.9696 95.8003 15.1924C96.7719 15.3873 97.7158 15.6797 98.632 16.0696L97.3411 21.0405C96.7581 20.8177 96.1195 20.6228 95.4255 20.4557C94.7314 20.2886 93.9541 20.2051 93.0935 20.2051C91.2612 20.2051 89.887 20.7759 88.9709 21.9177C88.0825 23.0595 87.6383 24.5633 87.6383 26.4291C87.6383 28.4063 88.0547 29.938 88.8876 31.0241C89.7482 32.1101 91.2334 32.6532 93.3434 32.6532C94.0929 32.6532 94.898 32.5835 95.7586 32.4443C96.6193 32.3051 97.4105 32.0823 98.1323 31.776L99.0068 36.8722C98.285 37.1785 97.3827 37.443 96.3 37.6658C95.2173 37.8886 94.0235 38 92.7187 38C90.7199 38 88.9986 37.7076 87.555 37.1228C86.1114 36.5101 84.9176 35.6886 83.9737 34.6582C83.0576 33.6278 82.3774 32.4165 81.9332 31.0241C81.5168 29.6038 81.3086 28.0722 81.3086 26.4291Z" fill="#322153"/>
<path d="M122.602 26.3873C122.602 28.1139 122.352 29.7013 121.852 31.1494C121.353 32.5696 120.631 33.7949 119.687 34.8253C118.743 35.8279 117.605 36.6076 116.272 37.1646C114.967 37.7215 113.496 38 111.858 38C110.248 38 108.777 37.7215 107.444 37.1646C106.139 36.6076 105.015 35.8279 104.071 34.8253C103.127 33.7949 102.391 32.5696 101.864 31.1494C101.336 29.7013 101.073 28.1139 101.073 26.3873C101.073 24.6608 101.336 23.0873 101.864 21.6671C102.419 20.2468 103.169 19.0354 104.113 18.0329C105.084 17.0304 106.222 16.2506 107.527 15.6937C108.86 15.1367 110.303 14.8582 111.858 14.8582C113.441 14.8582 114.884 15.1367 116.189 15.6937C117.522 16.2506 118.66 17.0304 119.604 18.0329C120.548 19.0354 121.283 20.2468 121.811 21.6671C122.338 23.0873 122.602 24.6608 122.602 26.3873ZM116.272 26.3873C116.272 24.4658 115.884 22.962 115.106 21.8759C114.357 20.762 113.274 20.2051 111.858 20.2051C110.442 20.2051 109.346 20.762 108.568 21.8759C107.791 22.962 107.402 24.4658 107.402 26.3873C107.402 28.3089 107.791 29.8405 108.568 30.9823C109.346 32.0962 110.442 32.6532 111.858 32.6532C113.274 32.6532 114.357 32.0962 115.106 30.9823C115.884 29.8405 116.272 28.3089 116.272 26.3873Z" fill="#322153"/>
<path d="M136.153 37.8329C134.349 37.8051 132.878 37.6101 131.739 37.2481C130.629 36.8861 129.74 36.3848 129.074 35.7443C128.436 35.0759 127.991 34.2823 127.742 33.3633C127.52 32.4165 127.408 31.3582 127.408 30.1886V6.00253L133.613 5V28.9354C133.613 29.4924 133.655 29.9937 133.738 30.4392C133.821 30.8848 133.974 31.2608 134.196 31.5671C134.446 31.8734 134.793 32.1241 135.237 32.319C135.681 32.5139 136.278 32.6392 137.028 32.6949L136.153 37.8329Z" fill="#322153"/>
<path d="M139.543 26.5962C139.543 24.6468 139.835 22.9481 140.418 21.5C141.029 20.0241 141.82 18.7987 142.792 17.8241C143.763 16.8494 144.874 16.1114 146.123 15.6101C147.4 15.1089 148.705 14.8582 150.037 14.8582C153.147 14.8582 155.604 15.819 157.408 17.7405C159.213 19.6342 160.115 22.4329 160.115 26.1367C160.115 26.4987 160.101 26.9025 160.073 27.3481C160.046 27.7658 160.018 28.1418 159.99 28.476H145.915C146.054 29.757 146.65 30.7734 147.705 31.5253C148.76 32.2772 150.176 32.6532 151.953 32.6532C153.091 32.6532 154.202 32.5557 155.284 32.3608C156.395 32.138 157.297 31.8734 157.991 31.5671L158.824 36.6215C158.491 36.7886 158.047 36.9557 157.491 37.1228C156.936 37.2899 156.312 37.4291 155.618 37.5405C154.951 37.6797 154.229 37.7911 153.452 37.8747C152.675 37.9582 151.897 38 151.12 38C149.149 38 147.428 37.7076 145.956 37.1228C144.513 36.538 143.305 35.7443 142.334 34.7418C141.39 33.7114 140.682 32.5 140.21 31.1076C139.766 29.7152 139.543 28.2114 139.543 26.5962ZM154.118 24.2152C154.091 23.6861 153.993 23.1709 153.827 22.6696C153.688 22.1684 153.452 21.7228 153.119 21.3329C152.814 20.943 152.411 20.6228 151.911 20.3722C151.439 20.1215 150.843 19.9962 150.121 19.9962C149.427 19.9962 148.83 20.1215 148.33 20.3722C147.83 20.5949 147.414 20.9013 147.081 21.2911C146.748 21.681 146.484 22.1405 146.29 22.6696C146.123 23.1709 145.998 23.6861 145.915 24.2152H154.118Z" fill="#322153"/>
<path d="M164.695 9.97089L170.9 8.96835V15.443H178.354V20.6228H170.9V28.3506C170.9 29.6595 171.122 30.7038 171.566 31.4835C172.038 32.2633 172.968 32.6532 174.356 32.6532C175.022 32.6532 175.703 32.5975 176.397 32.4861C177.118 32.3468 177.771 32.1658 178.354 31.943L179.228 36.7886C178.479 37.0949 177.646 37.3595 176.73 37.5823C175.814 37.8051 174.689 37.9165 173.357 37.9165C171.663 37.9165 170.261 37.6937 169.151 37.2481C168.04 36.7747 167.152 36.1342 166.486 35.3266C165.819 34.4911 165.347 33.4886 165.07 32.319C164.82 31.1494 164.695 29.8544 164.695 28.4342V9.97089Z" fill="#322153"/>
<path d="M190.964 33.0709C191.574 33.0709 192.157 33.057 192.713 33.0291C193.268 33.0013 193.712 32.9595 194.045 32.9038V28.1835C193.795 28.1278 193.42 28.0722 192.921 28.0165C192.421 27.9608 191.963 27.9329 191.547 27.9329C190.964 27.9329 190.408 27.9747 189.881 28.0582C189.381 28.1139 188.937 28.2392 188.548 28.4342C188.16 28.6291 187.854 28.8937 187.632 29.2278C187.41 29.562 187.299 29.9797 187.299 30.481C187.299 31.4557 187.618 32.138 188.257 32.5278C188.923 32.8899 189.825 33.0709 190.964 33.0709ZM190.464 14.8582C192.296 14.8582 193.823 15.0671 195.045 15.4848C196.266 15.9025 197.238 16.5013 197.959 17.281C198.709 18.0608 199.237 19.0076 199.542 20.1215C199.847 21.2354 200 22.4747 200 23.8392V36.7886C199.112 36.9835 197.876 37.2063 196.294 37.457C194.711 37.7354 192.796 37.8747 190.547 37.8747C189.131 37.8747 187.84 37.7494 186.674 37.4987C185.536 37.2481 184.551 36.8443 183.718 36.2873C182.885 35.7025 182.246 34.9506 181.802 34.0316C181.358 33.1127 181.136 31.9848 181.136 30.6481C181.136 29.3671 181.386 28.281 181.885 27.3899C182.413 26.4987 183.107 25.7886 183.968 25.2595C184.828 24.7304 185.814 24.3544 186.924 24.1316C188.035 23.881 189.187 23.7557 190.381 23.7557C191.186 23.7557 191.894 23.7975 192.504 23.881C193.143 23.9367 193.656 24.0203 194.045 24.1316V23.5468C194.045 22.4886 193.726 21.6392 193.087 20.9987C192.449 20.3582 191.338 20.038 189.756 20.038C188.701 20.038 187.66 20.1215 186.633 20.2886C185.605 20.4278 184.717 20.6367 183.968 20.9152L183.176 15.9025C183.537 15.7911 183.981 15.6797 184.509 15.5684C185.064 15.4291 185.661 15.3177 186.3 15.2342C186.938 15.1228 187.604 15.0392 188.298 14.9835C189.02 14.9 189.742 14.8582 190.464 14.8582Z" fill="#322153"/>
<path d="M14.642 1.84961L10.0671 10.5861C9.77168 11.1501 9.96621 11.8554 10.5046 12.1725L17.6681 16.3922C18.214 16.7137 18.9079 16.516 19.2183 15.9504L27.9745 0.000640869H17.6401C16.3892 0.000640869 15.2386 0.71017 14.642 1.84961V1.84961Z" fill="#29A361"/>
<path d="M27.9743 0L19.2184 15.95C18.9074 16.5154 18.214 16.7136 17.6683 16.3923L15.7986 15.2913C16.2544 15.3674 16.7287 15.1503 16.9701 14.7099L25.047 0H27.9743Z" fill="#248F55"/>
<path d="M37.5549 8.45922L34.3995 1.949C33.8206 0.75457 32.641 0.000640869 31.3513 0.000640869H22.228L29.2328 12.3166C29.2099 12.3273 29.1868 12.338 29.1638 12.3487C28.7232 12.5542 28.7412 13.2093 29.1923 13.3888L35.241 15.796C35.5213 15.9076 35.8358 15.7625 35.9434 15.4721L38.2751 9.17953C38.4475 8.71406 37.9948 8.26491 37.5549 8.45922V8.45922Z" fill="#34CB79"/>
<path d="M38.2754 9.17899L35.943 15.4715C35.8358 15.7627 35.5209 15.9079 35.2409 15.7958L33.4107 15.0671L35.5924 9.17899C35.7165 8.84506 35.5184 8.51988 35.2341 8.43458C34.9635 8.35326 34.7324 8.16954 34.6059 7.90858L31.7167 1.94875C31.1382 0.754706 29.959 0 28.6687 0H31.3516C32.641 0 33.8202 0.754706 34.3996 1.94875L37.5549 8.45945C37.9953 8.26524 38.4473 8.71361 38.2754 9.17899Z" fill="#2FB86E"/>
<path d="M31.4594 33.5592C31.3744 33.1978 30.9244 33.043 30.6498 33.3275L25.9222 38.2268C25.7336 38.4223 25.7336 38.7391 25.9222 38.9345L30.668 43.8526C30.9408 44.1352 31.3862 43.9844 31.4758 43.6291H38.4548C39.7397 43.6291 40.9156 42.8809 41.4969 41.6934L45.4791 33.5591H31.4594V33.5592Z" fill="#29A361"/>
<path d="M37.3508 33.5593L39.6137 37.1078C40.1253 37.9101 40.1819 38.9352 39.762 39.7927L38.8313 41.6935C38.2509 42.8805 37.0745 43.6292 35.79 43.6292H38.4547C39.7392 43.6292 40.9155 42.8805 41.497 41.6935L45.4789 33.5594H37.3508V33.5593Z" fill="#248F55"/>
<path d="M21.9354 42.6939V34.0356C21.9354 33.3848 21.4263 32.8572 20.7983 32.8572H2.06787L6.88812 42.0281C7.48559 43.1648 8.63468 43.8722 9.88372 43.8722H20.7983C21.4262 43.8723 21.9354 43.3448 21.9354 42.6939Z" fill="#29A361"/>
<path d="M10.0115 32.858L5.85181 40.0573L2.06787 32.858H10.0115Z" fill="#248F55"/>
<path d="M21.9352 34.0358V42.6944C21.9352 43.3449 21.4262 43.8724 20.7985 43.8724H17.8152C18.4429 43.8724 18.9519 43.3449 18.9519 42.6944V34.0358C18.9519 33.3852 18.4429 32.8578 17.8152 32.8578H20.7985C21.4262 32.8577 21.9352 33.3852 21.9352 34.0358Z" fill="#248F55"/>
<path d="M12.7847 25.2066L11.9436 18.6467C11.902 18.3226 11.6148 18.0949 11.3021 18.1379L4.94784 19.0129C4.46934 19.0788 4.29102 19.682 4.61877 20.0176L0.608522 26.0077C-0.126759 27.106 -0.201384 28.54 0.415585 29.7138L4.77955 38.0167L11.8654 25.7507C11.8679 25.7526 11.8703 25.7546 11.8729 25.7566C12.2773 26.0747 12.8515 25.7282 12.7847 25.2066Z" fill="#34CB79"/>
<path d="M11.8725 25.7566C11.8705 25.7545 11.8677 25.7526 11.8657 25.7505L4.77961 38.0163L3.32227 35.2438L9.08977 25.2585L9.2497 24.9816C9.33717 24.8302 9.50808 24.7648 9.67523 24.7984C9.67608 24.7986 9.67692 24.7987 9.67777 24.7989C10.0334 24.8646 10.3981 24.5576 10.3435 24.1362L9.60464 18.3712L11.3015 18.138C11.6145 18.095 11.9023 18.3232 11.9438 18.6464L12.785 25.2072C12.8518 25.7285 12.2771 26.0748 11.8725 25.7566V25.7566Z" fill="#2FB86E"/>
<path d="M47.3959 25.557L41.9103 17.3197C41.5739 16.8144 40.9193 16.6616 40.4062 16.9684L33.2574 21.2435C32.69 21.5828 32.5159 22.3475 32.8771 22.9139L42.9549 38.7152L47.6306 29.1644C48.1965 28.0083 48.1065 26.6239 47.3959 25.557V25.557Z" fill="#34CB79"/>
<path d="M47.6307 29.1645L42.9543 38.7149L41.3859 36.2547L44.857 29.1644C45.423 28.0084 45.3332 26.6242 44.6223 25.5572L39.3308 17.6123L40.4067 16.9688C40.9195 16.6615 41.5743 16.8146 41.9104 17.3201L47.3961 25.5573C48.1069 26.6243 48.1967 28.0086 47.6307 29.1645V29.1645Z" fill="#2FB86E"/>
</svg>
