<svg width="443" height="511" viewBox="0 0 443 511" fill="none" xmlns="http://www.w3.org/2000/svg">
<path d="M215.333 465C96.4079 465 -0.000119265 475.297 -0.000120263 488C-0.000121261 500.703 96.4079 511 215.333 511C334.258 511 430.667 500.703 430.667 488C430.667 475.297 334.258 465 215.333 465Z" fill="#F0F0F5"/>
<path d="M410.248 398.817C410.248 398.817 379.697 491.056 376.424 491.056C373.15 491.056 307.683 512.963 365.512 485.291C365.512 485.291 372.059 384.981 381.879 380.369C391.699 375.758 410.248 398.817 410.248 398.817Z" fill="#965450"/>
<path d="M387.335 465.229C397.264 437.903 410.248 398.817 410.248 398.817C410.248 398.817 391.699 375.758 381.879 380.369C375.551 383.367 370.532 426.489 367.804 456.466C374.35 459.234 380.788 462.231 387.335 465.229Z" fill="#76413B"/>
<path d="M356.02 490.249C356.02 490.249 353.51 496.36 377.515 489.903L376.424 493.362C376.424 493.362 308.775 510.196 356.02 490.249Z" fill="#051F38"/>
<path d="M391.699 359.731C391.699 359.731 438.944 443.784 436.871 446.436C434.798 449.087 408.611 516.191 425.632 451.509C425.632 451.509 357.11 381.753 360.056 370.8C363.112 359.962 391.699 359.731 391.699 359.731Z" fill="#965450"/>
<path d="M423.232 462.347C423.232 462.347 426.069 468.342 436.762 444.706L438.617 447.819C438.508 447.819 407.302 513.539 423.232 462.347Z" fill="#051F38"/>
<path d="M419.195 409.771C406.538 386.134 391.699 359.731 391.699 359.731C391.699 359.731 363.112 359.962 360.057 370.8C358.093 377.833 386.244 409.655 406.211 431.101C406.32 431.216 414.067 422.108 419.195 409.771Z" fill="#76413B"/>
<path d="M421.704 233.364C421.704 233.364 392.79 199.351 375.877 220.681C358.965 242.011 332.778 312.343 336.597 341.168C338.889 358.117 354.273 376.219 366.603 388.325L356.237 450.125C356.237 450.125 398.791 462.231 396.063 462.231C394.426 462.231 438.071 338.286 442.435 299.084C446.8 259.883 421.704 233.364 421.704 233.364Z" fill="#8257E6"/>
<path opacity="0.2" d="M399.555 240.974C407.629 240.858 416.467 239.705 424.214 236.362C422.687 234.402 421.705 233.364 421.705 233.364C421.705 233.364 392.79 199.351 375.878 220.681C373.259 224.025 370.422 228.406 367.585 233.71C377.078 239.244 389.08 241.204 399.555 240.974Z" fill="#352C38"/>
<path opacity="0.2" d="M356.238 257.461C344.236 286.401 334.088 322.374 336.598 341.053C338.78 357.886 354.056 375.873 366.385 387.979C370.75 356.618 378.715 313.035 383.516 287.9C371.623 280.752 361.803 270.49 356.238 257.461Z" fill="#352C38"/>
<path d="M338.235 165.337L320.777 201.08C320.777 201.08 290.225 183.208 285.861 183.208C281.497 183.208 260.765 183.785 270.585 188.397C270.585 188.397 266.221 191.279 271.131 192.432C271.131 192.432 266.766 196.468 272.222 197.044L284.77 196.468C284.77 196.468 309.866 220.68 322.413 224.139C334.961 227.598 355.147 182.632 355.147 182.632L338.235 165.337Z" fill="#965450"/>
<path d="M341.072 190.934C343.799 191.972 346.636 193.01 349.473 194.047C352.965 187.59 355.147 182.517 355.147 182.517L338.235 165.223L328.633 184.823C332.452 187.36 336.707 189.32 341.072 190.934Z" fill="#76413B"/>
<path d="M360.056 148.043C360.056 148.043 343.69 145.161 337.688 154.385C331.687 163.608 328.959 178.597 328.959 178.597L352.418 190.704L360.056 148.043Z" fill="#34CB79"/>
<path opacity="0.1" d="M351.001 180.673C345 175.715 338.126 169.489 333.652 161.994C330.379 170.065 328.851 178.482 328.851 178.482L352.31 190.588L353.729 182.748C352.856 182.171 351.874 181.48 351.001 180.673Z" fill="#161826"/>
<path d="M245.272 178.943C245.926 180.788 244.944 182.863 243.199 183.555L230.323 188.513C228.578 189.205 226.614 188.167 225.959 186.322L220.831 171.218C220.176 169.373 221.158 167.298 222.904 166.606L235.779 161.648C237.525 160.956 239.489 161.994 240.143 163.839L245.272 178.943Z" fill="#23173B"/>
<path d="M255.637 167.644L215.266 182.979C208.174 185.63 204.573 193.932 207.083 201.426L219.521 237.976C222.031 245.47 229.887 249.275 236.979 246.623L277.35 231.289C284.443 228.637 288.043 220.335 285.534 212.841L273.095 176.291C270.476 168.797 262.729 164.877 255.637 167.644ZM281.606 216.184C282.588 219.182 281.169 222.526 278.332 223.564L260.984 172.832C263.82 171.795 266.985 173.293 267.967 176.291L281.606 216.184Z" fill="#322153"/>
<path d="M242.653 163.608C243.198 165.223 242.435 167.067 240.907 167.644L222.576 174.677C221.049 175.254 219.303 174.446 218.757 172.832L217.23 168.336C216.684 166.721 217.448 164.877 218.976 164.3L237.306 157.267C238.834 156.69 240.58 157.498 241.125 159.112L242.653 163.608Z" fill="#8257E6"/>
<path d="M268.403 185.515C268.403 185.515 275.277 182.979 276.478 184.477C277.569 185.861 270.695 187.936 271.022 188.052C271.24 188.167 278.442 186.437 279.096 188.052C279.751 189.666 271.458 192.548 271.458 192.548C271.458 192.548 279.314 190.242 279.86 191.972C280.406 193.701 271.677 196.238 271.677 196.238L271.24 192.433L270.695 188.052L268.403 185.515Z" fill="#965450"/>
<path d="M278.114 183.555C278.114 183.555 272.768 179.75 272.768 178.482C272.659 177.098 286.952 183.44 286.952 183.44L278.114 183.555Z" fill="#965450"/>
<path d="M383.516 145.161C382.425 147.236 387.771 98.926 387.771 98.926L363.003 116.567C363.003 116.567 365.185 147.467 362.457 147.582C361.366 147.582 357.111 149.311 352.419 151.156C353.51 156.921 355.693 158.189 357.547 163.724C371.404 163.608 386.462 163.263 394.972 149.888C390.062 148.158 384.934 142.278 383.516 145.161Z" fill="#76413B"/>
<path d="M360.057 148.043L358.966 144.008L386.244 137.666L387.335 144.584C387.335 144.584 420.068 156.114 424.433 182.056C428.797 207.998 426.615 224.717 421.705 233.364C421.705 233.364 383.516 239.129 367.149 230.482C350.782 221.834 333.87 157.267 342.599 151.502C351.328 145.737 360.057 148.043 360.057 148.043Z" fill="#34CB79"/>
<path opacity="0.1" d="M395.737 219.874C382.643 219.067 366.604 217.453 355.693 208.921C353.619 207.306 351.765 205.577 350.019 203.617C354.929 216.415 361.039 227.253 367.149 230.481C383.516 239.129 421.705 233.364 421.705 233.364C423.887 229.559 425.524 224.14 426.288 216.992C416.468 220.105 406.211 220.566 395.737 219.874Z" fill="#161826"/>
<path d="M394.427 199.927L422.25 197.621C422.25 197.621 415.158 249.505 406.975 267.377C398.791 285.248 361.148 355.58 375.878 316.378C375.878 316.378 356.784 346.933 373.15 315.802C373.15 315.802 355.147 340.591 370.968 314.073C370.968 314.073 352.419 336.556 372.059 304.849C372.059 304.849 357.329 312.343 373.696 299.66L389.517 255.847L394.427 199.927Z" fill="#965450"/>
<path d="M421.596 201.772C422.032 199.12 422.251 197.506 422.251 197.506L394.427 199.812L394.209 202.81C403.265 202.81 412.431 202.349 421.596 201.772Z" fill="#76413B"/>
<path d="M365.294 67.9108C365.294 67.9108 379.152 59.3787 399.446 73.4451C412.867 82.7843 412.212 112.647 383.189 132.247C348.709 155.538 365.294 67.9108 365.294 67.9108Z" fill="#051F38"/>
<path d="M384.498 83.8219C384.498 83.8219 368.895 71.0238 355.584 77.2499C338.781 85.3208 340.526 104.114 340.199 120.141C339.763 141.471 355.693 145.507 360.494 145.737C367.586 146.198 396.5 144.354 384.498 83.8219Z" fill="#965450"/>
<path d="M386.026 103.769C386.026 103.769 386.681 100.54 391.918 103.077C398.574 106.42 394.973 123.254 387.554 122.793C380.025 122.447 386.026 103.769 386.026 103.769Z" fill="#965450"/>
<path d="M386.025 103.769C386.025 103.769 386.898 115.298 384.389 115.414C381.77 115.529 379.042 94.5447 386.244 94.5447C393.445 94.7753 386.025 103.769 386.025 103.769Z" fill="#051F38"/>
<path d="M386.026 103.769C386.026 103.769 380.679 78.1724 348.928 82.4384C348.928 82.4384 353.51 72.8686 363.549 68.372C377.188 62.2612 397.591 86.8197 391.918 103.077C391.918 103.077 389.299 103.423 386.026 103.769Z" fill="#34CB79"/>
<path d="M399.446 80.1324C399.446 80.1324 397.7 49.5783 404.684 49.5783C411.667 49.5783 404.138 75.2899 404.138 75.2899C404.138 75.2899 409.921 38.5097 426.724 44.044C443.527 49.5783 414.504 75.2899 414.504 75.2899C414.504 75.2899 427.815 62.3765 432.507 66.7578C437.09 71.0238 413.412 79.6712 413.412 79.6712C413.412 79.6712 431.416 74.1369 433.707 83.3608C435.999 92.4694 398.901 91.2011 399.446 80.1324Z" fill="#051F38"/>
<path d="M341.072 97.8889C341.072 97.8889 341.072 97.6583 341.29 97.1971C341.508 96.7359 341.726 96.1594 342.272 95.5829C342.817 95.0064 343.472 94.3146 344.345 93.8534C344.563 93.7381 344.781 93.6228 345.109 93.5075C345.327 93.3922 345.654 93.2769 345.873 93.2769C346.2 93.2769 346.418 93.1616 346.745 93.1616H347.618C348.164 93.1616 348.709 93.3922 349.255 93.6228C349.801 93.8534 350.237 94.084 350.673 94.4299C351.11 94.7758 351.437 95.1217 351.765 95.4676C352.092 95.8135 352.31 96.1594 352.419 96.5053C352.528 96.6206 352.638 96.8512 352.638 96.9665C352.747 97.0818 352.747 97.3124 352.856 97.4277C352.965 97.7736 353.074 98.0042 353.074 98.2348C353.183 98.6959 353.183 98.9265 353.183 98.9265C353.183 98.9265 352.965 98.8112 352.528 98.696C352.31 98.5807 352.092 98.4654 351.874 98.3501C351.656 98.2348 351.328 98.1195 351.001 97.8889C350.674 97.7736 350.455 97.543 350.128 97.4277C349.801 97.3124 349.473 97.1971 349.146 97.0818C348.819 96.9665 348.491 96.8512 348.164 96.7359C347.837 96.7359 347.509 96.6206 347.182 96.6206H346.745C346.636 96.6206 346.418 96.6206 346.2 96.6206C345.873 96.6206 345.545 96.7359 345.218 96.7359C344.89 96.8512 344.563 96.8512 344.236 96.9665C343.908 97.0818 343.581 97.0818 343.254 97.1971C342.599 97.4277 342.054 97.543 341.726 97.6583C341.399 97.8889 341.072 97.8889 341.072 97.8889Z" fill="#051F38"/>
<path d="M349.473 129.595C349.473 129.595 367.367 130.172 368.568 129.941C369.659 129.711 358.529 138.935 349.473 129.595Z" fill="white"/>
<path d="M350.673 108.496C350.673 108.496 350.673 108.726 350.564 109.188C350.455 109.649 350.346 110.225 350.128 111.032C350.019 111.378 349.909 111.839 349.691 112.185C349.582 112.416 349.473 112.647 349.364 112.762C349.255 112.992 349.037 113.223 348.928 113.338C348.6 113.684 348.273 114.145 347.727 114.376C347.618 114.491 347.509 114.491 347.291 114.607L346.964 114.722C346.745 114.837 346.418 114.837 346.091 114.837C345.545 114.837 344.89 114.722 344.454 114.261C344.018 113.915 343.69 113.454 343.472 112.877C343.254 112.416 343.145 111.955 343.036 111.494C342.926 111.032 342.927 110.571 342.927 110.225C342.927 109.418 342.926 108.842 343.036 108.381C343.145 107.919 343.254 107.689 343.254 107.689C343.254 107.689 343.254 108.726 343.581 110.225C343.69 110.917 343.908 111.839 344.345 112.531C344.563 112.877 344.781 113.223 345.109 113.454C345.436 113.684 345.763 113.8 346.091 113.8C346.309 113.8 346.418 113.8 346.636 113.684L346.964 113.569C346.964 113.569 347.073 113.454 347.182 113.454C347.509 113.338 347.836 112.992 348.164 112.762C348.491 112.416 348.709 112.07 348.928 111.724C349.146 111.378 349.364 111.032 349.473 110.686C349.8 109.995 350.019 109.418 350.237 109.072C350.564 108.726 350.673 108.496 350.673 108.496Z" fill="#1F2733"/>
<path d="M368.677 109.995C368.677 109.995 368.677 110.225 368.568 110.686C368.458 111.148 368.349 111.724 368.131 112.531C368.022 112.877 367.913 113.338 367.695 113.684C367.586 113.915 367.476 114.145 367.367 114.261C367.258 114.491 367.04 114.722 366.931 114.837C366.604 115.183 366.276 115.644 365.731 115.875C365.622 115.99 365.512 115.99 365.294 116.106L364.967 116.221C364.749 116.336 364.421 116.336 364.094 116.336C363.548 116.336 362.894 116.221 362.457 115.76C362.021 115.414 361.693 114.953 361.475 114.376C361.257 113.915 361.148 113.454 361.039 112.992C360.93 112.531 360.93 112.07 360.93 111.724C360.93 110.917 360.93 110.341 361.039 109.879C361.148 109.418 361.257 109.188 361.257 109.188C361.257 109.188 361.257 110.225 361.584 111.724C361.693 112.416 361.912 113.338 362.348 114.03C362.566 114.376 362.785 114.722 363.112 114.953C363.439 115.183 363.767 115.298 364.094 115.298C364.312 115.298 364.421 115.298 364.639 115.183L364.967 115.068C364.967 115.068 365.076 114.953 365.185 114.953C365.512 114.837 365.84 114.491 366.167 114.261C366.494 113.915 366.713 113.569 366.931 113.223C367.149 112.877 367.367 112.531 367.476 112.185C367.804 111.494 368.022 110.917 368.24 110.571C368.568 110.225 368.677 109.995 368.677 109.995Z" fill="#1F2733"/>
<path d="M388.535 119.565C388.862 119.103 389.081 118.757 389.299 118.296C389.517 117.835 389.626 117.374 389.735 116.913C389.735 116.682 389.735 116.451 389.735 116.221C389.735 116.106 389.626 115.99 389.626 115.99C389.626 115.875 389.517 115.76 389.408 115.76C389.299 115.644 389.299 115.644 389.19 115.529L388.972 115.298C388.862 115.183 388.753 115.183 388.644 115.183L388.317 115.068L388.099 114.953V114.722C387.771 113.454 387.662 112.301 387.553 111.032C387.444 110.456 387.444 109.764 387.553 109.188C387.553 108.496 387.662 107.919 387.88 107.228C387.989 106.882 388.208 106.536 388.535 106.305C388.862 106.075 389.299 105.844 389.626 105.959C390.063 105.959 390.281 106.075 390.608 106.19C390.936 106.305 391.263 106.421 391.481 106.651C391.699 106.882 392.027 107.112 392.136 107.343C392.354 107.573 392.463 107.919 392.572 108.15C392.791 108.726 392.9 109.418 392.791 109.995C392.681 109.418 392.572 108.842 392.245 108.265C392.136 108.035 391.918 107.804 391.699 107.573C391.481 107.343 391.263 107.228 391.045 107.112C390.826 106.997 390.608 106.882 390.281 106.882C390.063 106.882 389.735 106.766 389.517 106.766C389.081 106.766 388.862 107.112 388.753 107.573C388.426 108.611 388.535 109.764 388.535 110.917C388.644 112.07 388.753 113.338 388.972 114.491L388.753 114.145L389.081 114.376C389.19 114.491 389.299 114.491 389.408 114.607L389.735 114.837C389.844 114.953 389.954 115.068 390.063 115.183C390.172 115.298 390.281 115.414 390.281 115.644C390.39 115.76 390.39 115.99 390.39 116.106C390.499 116.451 390.39 116.682 390.39 117.028C390.281 117.604 389.954 118.066 389.626 118.527C389.299 118.873 388.862 119.334 388.535 119.565Z" fill="#76413B"/>
<path d="M352.31 124.407C351.764 124.522 351.328 124.522 350.892 124.522C350.455 124.522 350.019 124.407 349.691 124.292C349.255 124.176 348.928 123.946 348.6 123.831C348.382 123.715 348.273 123.6 348.055 123.485C347.836 123.369 347.727 123.254 347.509 123.139L346.854 122.562L346.964 122.101C348.055 118.757 349.146 115.529 350.237 112.301C351.328 109.072 352.528 105.729 353.729 102.5C352.965 105.844 352.092 109.303 351.328 112.647C350.455 115.99 349.582 119.334 348.709 122.678L348.273 121.64C348.491 121.64 348.709 121.755 348.928 121.755C349.146 121.755 349.364 121.87 349.473 121.986C349.801 122.101 350.237 122.332 350.564 122.562C350.892 122.793 351.219 123.139 351.546 123.485C351.765 123.6 352.092 123.946 352.31 124.407Z" fill="#76413B"/>
<path d="M358.748 96.5048C358.748 96.5048 358.857 96.1589 359.184 95.813C359.402 95.5824 359.511 95.3518 359.839 95.0059C360.166 94.7753 360.384 94.4294 360.821 94.1988C361.148 93.9682 361.584 93.6223 362.13 93.3917C362.566 93.1611 363.112 92.9306 363.658 92.7C364.203 92.5847 364.858 92.3541 365.512 92.3541C365.84 92.3541 366.167 92.3541 366.494 92.3541L367.476 92.4694C368.131 92.4694 368.786 92.8153 369.331 92.9306C369.877 93.1612 370.422 93.507 370.968 93.7376C371.514 94.0835 371.95 94.4294 372.277 94.7753C372.714 95.1212 373.041 95.5824 373.259 95.9283C373.587 96.2742 373.805 96.6201 374.023 96.966C374.241 97.3119 374.35 97.6578 374.46 97.8884C374.678 98.3496 374.787 98.6955 374.787 98.6955C374.787 98.6955 374.46 98.5802 374.023 98.3496C373.805 98.2343 373.478 98.119 373.15 97.8884C372.823 97.6578 372.496 97.5425 372.059 97.4272C371.732 97.3119 371.295 97.0813 370.859 96.8507C370.422 96.7354 369.986 96.5048 369.55 96.3895C369.113 96.2742 368.677 96.1589 368.24 96.0436C367.804 96.0436 367.367 95.813 366.822 95.813L366.167 95.6977H365.512C365.076 95.6977 364.53 95.6977 364.094 95.6977C363.658 95.6977 363.221 95.6977 362.785 95.813C362.348 95.813 361.912 95.9283 361.475 95.9283C360.712 96.0436 359.948 96.1589 359.511 96.2742C359.075 96.5048 358.748 96.5048 358.748 96.5048Z" fill="#051F38"/>
<path d="M343.69 490.825C343.69 494.976 340.526 498.435 336.598 498.55C332.67 498.55 329.397 495.207 329.287 491.056L328.96 466.613C328.96 462.462 332.124 459.003 336.052 458.888C339.98 458.888 343.254 462.231 343.363 466.382L343.69 490.825Z" fill="#091E1D"/>
<path d="M243.198 492.094C243.198 496.245 240.034 499.704 236.106 499.819C232.178 499.819 228.905 496.476 228.796 492.325L228.469 467.882C228.469 463.731 231.633 460.272 235.561 460.157C239.489 460.157 242.762 463.5 242.871 467.651L243.198 492.094Z" fill="#091E1D"/>
<path d="M335.616 473.415C335.725 482.87 328.524 490.595 319.577 490.71L252.364 491.517C243.417 491.633 236.106 484.023 235.997 474.568L228.796 312.92C228.687 303.466 235.888 295.741 244.835 295.625L322.85 294.588C331.797 294.472 339.107 302.082 339.217 311.536L335.616 473.415Z" fill="#34CB79"/>
<path opacity="0.1" d="M338.78 327.793L339.107 311.767C338.998 302.312 331.688 294.703 322.741 294.818L244.726 295.856C235.779 295.971 228.577 303.696 228.687 313.151L229.45 329.177L338.78 327.793Z" fill="#161826"/>
<path d="M352.092 307.732C352.092 310.383 350.128 312.459 347.618 312.574L220.176 314.188C217.666 314.188 215.702 312.113 215.593 309.461L215.375 292.397C215.375 289.745 217.339 287.67 219.849 287.554L347.291 285.94C349.8 285.94 351.764 288.016 351.874 290.667L352.092 307.732Z" fill="#34CB79"/>
<path d="M284.443 355.119L299.282 345.665L295.681 355.465L284.443 355.119Z" fill="white"/>
<path d="M278.878 340.246C278.878 340.246 280.078 340.246 281.933 343.243C283.788 346.241 287.934 354.312 287.934 354.312L295.463 350.738L297.209 347.625C297.209 347.625 293.935 340.707 291.317 340.246H278.878Z" fill="white"/>
<path d="M274.732 342.321C274.732 342.321 277.023 339.669 278.878 341.053C280.733 342.437 284.006 348.202 284.006 348.202L278.66 358.117L269.058 352.468L274.732 342.321Z" fill="white"/>
<path d="M291.208 367.456L291.972 385.673L285.534 377.718L291.208 367.456Z" fill="white"/>
<path d="M306.265 369.301C306.265 369.301 305.719 370.454 302.337 370.8C298.955 371.146 290.226 371.146 290.226 371.146L289.571 379.908L291.317 383.021C291.317 383.021 298.627 383.367 300.264 381.061L306.265 369.301Z" fill="white"/>
<path d="M306.374 364.458C306.374 364.458 307.574 367.802 305.501 368.955C303.537 369.993 297.1 370.223 297.1 370.223L291.317 360.538L300.591 354.197L306.374 364.458Z" fill="white"/>
<path d="M278.112 367.226L262.837 358.693L272.657 356.849L278.112 367.226Z" fill="white"/>
<path d="M269.058 380.024C269.058 380.024 268.403 378.986 269.822 375.758C271.24 372.529 275.605 364.574 275.605 364.574L268.84 359.616L265.457 359.731C265.457 359.731 261.529 366.303 262.511 368.84L269.058 380.024Z" fill="white"/>
<path d="M272.877 382.56C272.877 382.56 269.494 381.868 269.713 379.562C269.822 377.141 272.877 371.261 272.877 371.261L283.679 370.915L284.115 382.56H272.877Z" fill="white"/>
<path d="M50.2892 445.167C50.2892 445.167 47.8888 485.868 45.8157 486.675C37.8505 489.557 -22.2698 505.699 34.5772 478.604L33.0496 448.972L50.2892 445.167Z" fill="#051F38"/>
<path d="M47.7796 476.759C49.1981 464.422 50.2892 445.167 50.2892 445.167L33.0496 448.972L34.468 475.376C38.7234 476.644 43.6334 476.759 47.7796 476.759Z" fill="#041523"/>
<path d="M10.4638 492.786C8.71804 497.282 40.1421 488.75 45.8159 486.675C45.925 486.559 46.1432 486.329 46.3615 485.752C39.2692 487.828 17.7743 493.016 10.4638 492.786Z" fill="white"/>
<path d="M87.0598 442.977C87.0598 442.977 90.2241 483.677 92.4063 484.369C100.481 487.136 160.819 502.01 103.427 476.067L104.409 446.436L87.0598 442.977Z" fill="#051F38"/>
<path d="M90.2241 474.453C88.5874 462.232 87.0598 442.977 87.0598 442.977L104.409 446.436L103.536 472.839C99.2804 474.223 94.3703 474.338 90.2241 474.453Z" fill="#041523"/>
<path d="M127.868 489.788C129.722 494.285 98.0802 486.329 92.4064 484.369C92.1882 484.369 92.0791 484.023 91.8608 483.446C98.9531 485.522 120.557 490.249 127.868 489.788Z" fill="white"/>
<path d="M97.6436 223.218C97.6436 223.218 113.356 357.31 110.191 465.806C110.191 465.806 91.4242 471.34 86.5142 467.305C82.2589 441.593 82.8045 391.554 76.476 354.427C70.4749 319.377 68.0744 290.667 68.0744 290.667L66.1104 288.361C66.1104 288.361 53.2353 457.85 50.3984 470.764C34.1408 474.799 29.0126 470.072 29.0126 470.072C29.0126 470.072 21.593 258.038 26.1757 223.794C32.0677 179.059 97.6436 223.218 97.6436 223.218Z" fill="#34CB79"/>
<path opacity="0.1" d="M100.479 251.004C98.8427 233.709 97.5334 223.333 97.5334 223.333C97.5334 223.333 32.0665 179.173 26.0653 223.909C25.5198 228.06 25.1924 234.862 24.8651 243.51C29.7751 246.392 91.0958 255.616 100.479 251.004Z" fill="#161826"/>
<path opacity="0.1" d="M66.8743 286.978C67.638 296.086 71.5661 325.488 76.4761 354.427C82.8045 391.669 82.259 441.593 86.5143 467.305C91.4243 471.34 110.192 465.806 110.192 465.806C112.046 399.048 106.918 322.605 102.554 273.719C92.1881 280.636 78.9856 283.98 66.8743 286.978Z" fill="#161826"/>
<path d="M72.4388 105.959C72.5479 91.8928 73.5299 73.3298 73.5299 73.3298L47.3432 65.7201C47.3432 65.7201 48.2161 90.8552 48.9799 106.19C37.0867 110.456 23.5569 118.527 23.5569 118.527L72.9844 131.786L90.5513 113.8C90.5513 113.8 81.7133 109.072 72.4388 105.959Z" fill="#FFB39F"/>
<path d="M72.4388 105.959C72.5479 91.8928 73.5299 73.3298 73.5299 73.3298L47.3432 65.7201C47.3432 65.7201 48.2161 90.8552 48.9799 106.19C37.0867 110.456 23.5569 118.527 23.5569 118.527L72.9844 131.786L96.3342 110.571C96.3342 110.571 81.8224 104.806 72.4388 105.959Z" fill="#E09B8D"/>
<path d="M45.0518 39.0862C45.0518 39.0862 51.9258 15.5653 70.0383 19.2549C88.1508 22.9444 90.7695 47.9642 93.0609 64.7977C95.3522 81.7466 90.224 96.966 76.0395 98.8108C63.7099 100.425 42.2149 97.8884 45.0518 39.0862Z" fill="#FFB39F"/>
<path d="M45.9248 58.8022C45.9248 58.8022 44.8337 55.6891 40.3601 59.1481C34.6864 63.5294 40.4693 79.6712 47.3433 77.9417C54.2173 76.2123 45.9248 58.8022 45.9248 58.8022Z" fill="#FFB39F"/>
<path d="M39.5962 25.5963C40.0327 25.481 48.5434 24.7892 42.8696 25.3657C48.1069 31.3612 47.5614 32.8601 54.7627 34.2437C58.5816 46.6959 51.0529 54.1903 51.0529 54.1903L53.1261 69.1791L47.6705 69.7556C47.6705 69.7556 47.7796 59.3787 43.6334 58.4563C39.4871 57.5339 38.2869 62.8377 38.2869 62.8377C29.6671 51.3078 20.9381 28.7093 39.5962 25.5963Z" fill="#051F38"/>
<path d="M89.0237 17.1795C92.5152 8.07089 86.6232 0 86.6232 0C87.6052 3.34366 87.1688 6.45671 86.1868 8.99328C85.5321 6.45671 84.3319 3.68955 82.1496 0.922387C82.1496 0.922387 82.8043 10.1463 70.9112 8.99328C59.018 7.84029 38.1777 9.56977 37.3048 29.0552C36.3228 48.5406 54.108 34.3589 54.108 34.3589C54.108 34.3589 89.5692 44.8511 94.6975 14.6429L89.0237 17.1795Z" fill="#051F38"/>
<path d="M72.2205 50.8476C72.2205 50.8476 71.8932 50.8476 71.4567 50.7323C70.9112 50.617 70.2565 50.5017 69.4927 50.3864C69.0563 50.2711 68.729 50.2711 68.2925 50.2711C67.8561 50.1558 67.4196 50.1558 66.9832 50.1558C66.5468 50.1558 66.1103 50.1558 65.5648 50.1558C65.3465 50.1558 65.1283 50.1558 64.9101 50.1558L64.2554 50.2711C63.819 50.2711 63.3825 50.3864 62.837 50.5017C62.4005 50.617 61.9641 50.7323 61.5277 50.8476C61.0912 50.9629 60.6548 51.1935 60.2183 51.3088C59.7819 51.4241 59.4545 51.6547 59.0181 51.77C58.6908 51.8853 58.2543 52.0006 58.0361 52.2312C57.7088 52.3465 57.4905 52.4618 57.2723 52.5771C56.8359 52.8077 56.5085 52.923 56.5085 52.923C56.5085 52.923 56.6177 52.5771 56.8359 52.1159C56.945 51.8853 57.0541 51.5394 57.2723 51.1935C57.4905 50.8476 57.7088 50.5017 58.0361 50.1558C58.3634 49.8099 58.5817 49.3487 59.0181 49.0028C59.4545 48.6569 59.891 48.311 60.4365 47.9651C60.9821 47.7345 61.5277 47.3886 62.0732 47.158C62.7279 46.9274 63.2734 46.8121 63.9281 46.6968L64.9101 46.5815C65.2374 46.5815 65.5648 46.5815 65.8921 46.6968C66.2194 46.6968 66.5467 46.8121 66.765 46.8121C67.0923 46.9274 67.3105 46.9274 67.6379 47.0427C68.1834 47.2733 68.729 47.3886 69.1654 47.7345C69.6019 47.9651 70.0383 48.311 70.4747 48.5416C70.8021 48.7722 71.1294 49.1181 71.4567 49.3487C71.675 49.5793 71.8932 49.9252 72.1114 50.0405C72.0023 50.5017 72.2205 50.8476 72.2205 50.8476Z" fill="#051F38"/>
<path d="M90.6605 50.2702C90.6605 50.2702 90.4422 50.1549 90.0058 50.0396C89.5693 49.9243 89.0238 49.6937 88.4782 49.4631C88.1509 49.3478 87.8236 49.2325 87.4962 49.1172C87.1689 49.0019 86.8416 48.8866 86.5142 48.8866C86.1869 48.8866 85.8596 48.7713 85.5322 48.656C85.4231 48.656 85.2049 48.656 85.0958 48.5407H84.6593C84.332 48.4254 84.0047 48.656 83.6773 48.5407C83.35 48.656 83.0227 48.656 82.6953 48.7713C82.368 48.8866 82.0407 49.0019 81.7133 49.1172C81.386 49.2325 81.0587 49.3478 80.8404 49.4631C80.5131 49.5784 80.1858 49.6937 79.9675 49.809C79.7493 49.9243 79.5311 50.0396 79.3129 50.0396C78.8764 50.1549 78.6582 50.2702 78.6582 50.2702C78.6582 50.2702 78.6582 50.0396 78.8764 49.5784C78.9855 49.3478 78.9855 49.1172 79.2038 48.7713C79.3129 48.4254 79.5311 48.1948 79.7493 47.8489C79.9675 47.503 80.1858 47.1571 80.5131 46.8112C80.8404 46.4653 81.2769 46.2347 81.6042 45.8888C82.0407 45.6582 82.5862 45.4276 83.0227 45.197C83.5682 45.0817 84.1138 44.9664 84.6593 44.9664C84.9867 44.9664 85.2049 44.9664 85.5322 44.9664C85.8596 44.9664 86.0778 45.0817 86.296 45.197C86.5142 45.197 86.8416 45.3123 87.0598 45.4276C87.278 45.5429 87.4962 45.6582 87.7145 45.7735C88.5873 46.35 89.242 46.9265 89.6785 47.6183C90.1149 48.3101 90.3331 48.8866 90.5513 49.3478C90.6605 50.0396 90.6605 50.2702 90.6605 50.2702Z" fill="#051F38"/>
<path d="M77.2397 51.5385C77.8944 53.0373 78.5491 54.6515 79.2037 56.1504C79.5311 56.9575 79.7493 57.6493 80.0766 58.4564L80.9495 60.7623L81.8224 63.0683C82.1497 63.8754 82.3679 64.5672 82.6952 65.3743L83.1317 66.5273C83.2408 66.8731 83.459 67.3343 83.5681 67.6802C83.8955 68.372 84.2228 69.0638 84.5501 69.8709L84.8774 70.7933L84.2228 71.1392C83.2408 71.6004 82.2588 72.1769 81.1677 72.6381C80.1857 73.0993 79.0946 73.5605 78.0035 73.9064C78.8764 73.0993 79.7493 72.4075 80.6222 71.7157C81.495 71.0239 82.477 70.3321 83.3499 69.6403L83.0226 70.9086C82.5861 70.2168 82.1497 69.4097 81.7133 68.7179C81.2768 68.0261 80.9495 67.219 80.6222 66.412L80.0766 65.259L79.6402 64.106C79.4219 63.2989 79.0946 62.4918 78.8764 61.6847L78.2217 59.2634C78.0035 58.4564 77.8944 57.6493 77.6762 56.8422C77.5671 54.9974 77.3489 53.2679 77.2397 51.5385Z" fill="#DD9078"/>
<path d="M45.5974 74.5981C45.1609 74.3675 44.7245 74.0216 44.3971 73.5604C44.0698 73.2145 43.6333 72.7533 43.4151 72.1768C43.306 71.9463 43.1969 71.6004 43.1969 71.2545C43.1969 71.1392 43.1969 70.9086 43.1969 70.7933C43.1969 70.678 43.306 70.4474 43.306 70.3321C43.4151 69.9862 43.6333 69.7556 43.8516 69.525C43.9607 69.4097 44.0698 69.2944 44.1789 69.1791L44.5062 68.9485L44.288 69.2944C44.288 68.0261 44.288 66.7578 44.1789 65.6048C44.0698 64.3366 43.9607 63.0683 43.5242 62.0306C43.4151 61.8 43.306 61.5694 43.0878 61.4541C42.9787 61.3388 42.7605 61.2235 42.5422 61.2235C42.4331 61.2235 42.324 61.2235 42.2149 61.3388C42.1058 61.3388 41.8876 61.4541 41.7784 61.4541C41.5602 61.5694 41.342 61.6847 41.1238 61.9153C40.9056 62.1459 40.6873 62.2612 40.5782 62.4918C40.4691 62.7224 40.2509 62.953 40.1418 63.2989C39.9236 63.8754 39.8144 64.4518 39.8144 65.1436C39.5962 64.5671 39.5962 63.8754 39.7053 63.1836C39.7053 62.8377 39.8144 62.4918 40.0327 62.2612C40.1418 61.9153 40.36 61.6847 40.5782 61.4541L40.9056 61.1082L41.342 60.7623C41.4511 60.647 41.6693 60.647 41.7784 60.5317C41.8876 60.4164 42.1058 60.4164 42.324 60.3011C42.7605 60.1858 43.1969 60.3011 43.5242 60.647C43.8516 60.8776 44.0698 61.2235 44.1789 61.5694C44.5062 62.2612 44.6154 62.8377 44.8336 63.5295C44.9427 64.2213 45.0518 64.7977 45.0518 65.4895C45.1609 66.7578 45.1609 68.0261 45.0518 69.4097V69.6403L44.8336 69.7556C44.6154 69.8709 44.3971 69.9862 44.288 70.2168C44.1789 70.3321 43.9607 70.5627 43.8516 70.678C43.7425 70.7933 43.7425 70.9086 43.7425 71.0239C43.7425 71.1392 43.6333 71.2545 43.6333 71.3698C43.6333 71.6004 43.6333 71.8309 43.6333 72.0615C43.7425 72.5227 43.9607 72.9839 44.288 73.4451C44.9427 73.9063 45.27 74.2522 45.5974 74.5981Z" fill="#DD9078"/>
<path d="M62.7279 61.8C62.7279 61.8 62.837 62.0306 62.9461 62.4918C63.0552 62.7224 63.0552 62.953 63.1644 63.1835C63.2735 63.4141 63.3826 63.76 63.6008 64.1059C63.7099 64.4518 64.0372 64.6824 64.1464 65.0283C64.2555 65.1436 64.3646 65.2589 64.5828 65.4895C64.6919 65.6048 64.801 65.7201 65.0192 65.8354C65.3466 66.066 65.6739 66.1813 66.0013 66.2966C66.2195 66.2966 66.3286 66.4119 66.5468 66.4119C66.765 66.4119 66.8741 66.4119 67.0924 66.2966L67.6379 66.066L68.1835 65.7201C68.5108 65.4895 68.729 65.1436 68.9473 64.7977C69.1655 64.4518 69.2746 64.1059 69.4928 63.76C69.6019 63.4141 69.7111 63.0683 69.7111 62.6071C69.7111 62.2612 69.7111 61.9153 69.8202 61.6847C69.8202 61.3388 69.8202 61.1082 69.8202 60.8776C69.8202 60.4164 69.8202 60.1858 69.8202 60.1858C69.8202 60.1858 69.9293 60.4164 70.0384 60.8776C70.1475 61.1082 70.1475 61.3388 70.2566 61.6847C70.2566 62.0306 70.3657 62.3765 70.3657 62.7224C70.3657 63.0682 70.3657 63.5294 70.2566 63.9906C70.1475 64.4518 70.0384 64.913 69.8202 65.3742C69.6019 65.8354 69.2746 66.2966 68.8382 66.6425L68.1835 67.1037C67.9653 67.219 67.6379 67.3343 67.4197 67.4496C67.2015 67.4496 66.8741 67.5649 66.5468 67.5649C66.3286 67.5649 66.0013 67.4496 65.783 67.4496C65.2375 67.3343 64.801 66.9884 64.3646 66.6425C63.9281 66.2966 63.7099 65.8354 63.4917 65.4895C63.2735 65.0283 63.0552 64.6824 62.9461 64.3365C62.837 63.9906 62.7279 63.6447 62.7279 63.2988C62.7279 62.953 62.7279 62.7224 62.7279 62.4918C62.7279 62.0306 62.7279 61.8 62.7279 61.8Z" fill="#1F2733"/>
<path d="M82.4771 58.341C82.4771 58.341 82.5862 58.5716 82.6953 59.0328C82.8044 59.2634 82.8044 59.494 82.9135 59.7246C83.0226 59.9552 83.1317 60.3011 83.3499 60.647C83.4591 60.9929 83.7864 61.2235 83.8955 61.5694C84.0046 61.6847 84.1137 61.8 84.3319 62.0306C84.441 62.1459 84.5502 62.2612 84.7684 62.3765C85.0957 62.6071 85.423 62.7224 85.7504 62.8377C85.9686 62.8377 86.0777 62.953 86.2959 62.953C86.5142 62.953 86.6233 62.953 86.8415 62.8377L87.387 62.6071L87.9326 62.2612C88.2599 62.0306 88.4781 61.6847 88.6964 61.3388C88.9146 60.9929 89.0237 60.647 89.2419 60.3011C89.351 59.9552 89.4601 59.6093 89.4601 59.1481C89.4601 58.8022 89.4601 58.4563 89.5693 58.2257C89.5693 57.8798 89.5693 57.6493 89.5693 57.4187C89.5693 56.9575 89.5693 56.7269 89.5693 56.7269C89.5693 56.7269 89.6784 56.9575 89.7875 57.4187C89.8966 57.6493 89.8966 57.8798 90.0057 58.2257C90.0057 58.5716 90.1148 58.9175 90.1148 59.2634C90.1148 59.6093 90.1148 60.0705 90.0057 60.5317C89.8966 60.9929 89.7875 61.4541 89.5693 61.9153C89.351 62.3765 89.0237 62.8377 88.5873 63.1836L87.9326 63.6448C87.7144 63.7601 87.387 63.8754 87.1688 63.9907C86.9506 63.9907 86.6233 64.106 86.2959 64.106C86.0777 64.106 85.7504 63.9907 85.5322 63.9907C84.9866 63.8754 84.5502 63.5295 84.1137 63.1836C83.6773 62.8377 83.459 62.3765 83.2408 62.0306C83.0226 61.5694 82.8044 61.2235 82.6953 60.8776C82.5862 60.5317 82.4771 60.1858 82.4771 59.8399C82.4771 59.494 82.4771 59.2634 82.4771 59.0328C82.4771 58.5716 82.4771 58.341 82.4771 58.341Z" fill="#1F2733"/>
<path d="M64.4466 78.1034C64.4466 78.1034 64.3375 78.1034 64.4466 78.2187C64.5557 78.334 64.7739 78.4493 64.9921 78.5646C65.4286 78.9105 66.1924 79.2564 67.0652 79.7176C67.9381 80.1788 69.0292 80.64 70.1204 80.9859C70.6659 81.2165 71.3206 81.3318 71.8661 81.4471C72.4117 81.5624 73.0664 81.6777 73.721 81.793C74.9212 81.9083 76.1215 82.0236 77.3217 81.9083C78.5219 81.793 79.5039 81.5624 80.4859 81.2165C81.3588 80.8706 82.1226 80.64 82.6681 80.4094C83.2137 80.1788 83.541 80.0635 83.541 80.0635C83.541 80.0635 83.3228 80.4094 82.8864 80.7553C82.4499 81.2165 81.7952 81.793 80.9223 82.3695C80.0495 82.946 78.8492 83.5225 77.5399 83.7531C76.2306 84.099 74.8121 84.099 73.3937 83.9837C72.739 83.8684 71.9752 83.7531 71.3206 83.5225C70.6659 83.2919 70.0112 83.0613 69.4657 82.7154C68.2655 82.1389 67.2835 81.4471 66.5197 80.7553C65.7559 80.0635 65.1012 79.3717 64.7739 78.7952C64.5557 78.5646 64.4466 78.334 64.4466 78.1034C64.3375 78.1034 64.3375 78.2187 64.4466 78.1034Z" fill="#DD9078"/>
<path d="M81.4952 105.613C81.4952 105.613 109.428 102.5 113.029 125.099C116.629 147.813 116.302 153.923 116.302 153.923L89.0239 149.657L81.4952 105.613Z" fill="#8257E6"/>
<path d="M105.062 123.83C103.426 109.417 89.5685 106.304 81.4942 105.612C77.8935 110.916 72.8744 114.721 66.0004 114.952C58.1444 115.182 50.943 112.3 47.1241 105.958C34.9036 107.457 22.7923 111.147 20.0645 119.909C14.2816 138.357 19.3007 239.82 19.3007 239.82C19.3007 239.82 68.1826 248.698 108.336 240.627C108.227 240.742 107.245 143.084 105.062 123.83Z" fill="#8257E6"/>
<path opacity="0.2" d="M17.2285 169.258C17.4467 202.695 19.3016 239.936 19.3016 239.936C19.3016 239.936 68.1836 248.814 108.337 240.743C108.337 240.743 107.573 166.606 105.936 134.784C76.3669 146.429 46.7977 157.959 17.2285 169.258Z" fill="#352C38"/>
<path d="M47.3429 196.007C47.3429 196.007 46.2518 192.664 51.2709 190.473C56.29 188.282 108.009 173.985 111.282 174.447C114.555 174.908 154.599 179.981 155.254 182.287C155.909 184.593 107.354 201.196 107.354 201.196L47.3429 196.007Z" fill="#E1EDFF"/>
<path d="M110.082 205.577C110.082 205.577 53.4536 205.347 49.0891 199.928C44.7247 194.509 44.6155 190.588 69.3839 195.2C94.1522 199.812 108.446 199.12 108.446 199.12C108.446 199.12 153.836 176.753 155.364 182.172C156.782 187.706 161.583 186.322 110.082 205.577Z" fill="#C0D5FF"/>
<path d="M155.255 182.287C153.836 176.868 108.337 199.236 108.337 199.236C108.337 199.236 108.227 199.236 107.9 199.236C108.882 201.311 109.646 203.271 110.519 205.462C161.583 186.322 156.782 187.706 155.255 182.287Z" fill="#B1C5E8"/>
<path d="M45.7059 183.671C45.7059 183.671 44.6148 180.327 49.6339 178.136C54.6531 175.946 106.372 161.649 109.645 162.11C112.919 162.571 152.963 167.644 153.617 169.95C154.272 172.256 105.717 188.859 105.717 188.859L45.7059 183.671Z" fill="#E1EDFF"/>
<path d="M108.445 193.356C108.445 193.356 51.8166 193.125 47.4522 187.706C43.0877 182.287 42.9786 178.367 67.7469 182.979C92.5152 187.591 106.809 186.899 106.809 186.899C106.809 186.899 152.199 164.531 153.727 169.95C155.036 175.369 159.946 173.986 108.445 193.356Z" fill="#C0D5FF"/>
<path d="M153.618 170.065C152.2 164.646 106.7 187.014 106.7 187.014C106.7 187.014 106.591 187.014 106.264 187.014C107.246 189.09 108.009 191.05 108.882 193.24C159.837 173.986 155.036 175.369 153.618 170.065Z" fill="#B1C5E8"/>
<path d="M45.4879 173.64C45.4879 173.64 44.5059 170.757 49.3068 168.797C54.1077 166.837 104.19 154.269 107.354 154.731C110.518 155.192 149.253 159.688 149.908 161.648C150.562 163.609 103.535 178.367 103.535 178.367L45.4879 173.64Z" fill="#E1EDFF"/>
<path d="M106.154 182.172C106.154 182.172 51.3805 181.941 47.1251 177.214C42.8698 172.486 42.8698 169.028 66.7652 173.063C90.6606 177.098 104.518 176.522 104.518 176.522C104.518 176.522 148.49 156.806 149.908 161.648C151.327 166.376 156.018 165.107 106.154 182.172Z" fill="#C0D5FF"/>
<path d="M149.908 161.648C148.49 156.921 104.518 176.522 104.518 176.522C104.518 176.522 104.409 176.522 104.081 176.522C104.954 178.251 105.827 180.096 106.591 181.941C156.018 165.107 151.326 166.376 149.908 161.648Z" fill="#B1C5E8"/>
<path d="M47.0154 160.15C47.0154 160.15 46.1425 157.267 51.0525 155.422C55.9625 153.693 106.372 143.085 109.536 143.662C112.7 144.123 151.217 150.234 151.762 152.194C152.308 154.154 104.844 166.952 104.844 166.952L47.0154 160.15Z" fill="white"/>
<path d="M107.355 171.102C107.355 171.102 52.5807 168.681 48.5435 163.838C44.5064 158.88 44.5064 155.537 68.2927 160.494C92.079 165.452 105.936 165.452 105.936 165.452C105.936 165.452 150.563 147.581 151.763 152.308C153.072 157.036 157.764 155.998 107.355 171.102Z" fill="#C0D5FF"/>
<path d="M151.763 152.309C150.563 147.467 105.936 165.453 105.936 165.453C105.936 165.453 105.827 165.453 105.5 165.453C106.373 167.298 107.136 169.143 107.791 170.988C157.655 155.999 152.963 157.037 151.763 152.309Z" fill="#B1C5E8"/>
<path d="M18.538 162.34L45.4885 155.422C45.4885 155.422 51.2714 196.93 52.799 199.236C54.3265 201.542 99.3895 203.848 99.3895 203.848L112.483 204.655C112.483 204.655 57.1634 229.213 41.2331 219.298C25.0846 209.151 18.538 162.34 18.538 162.34Z" fill="#FFB39F"/>
<path d="M21.1566 167.298C29.4491 164.646 37.5234 161.418 46.0341 159.458C45.7067 156.921 45.4885 155.422 45.4885 155.422L18.538 162.34C18.538 162.34 18.8653 164.416 19.4109 167.875C20.0655 167.644 20.6111 167.413 21.1566 167.298Z" fill="#E09B8D"/>
<path d="M107.464 208.46C107.464 208.46 127.977 202.695 127.977 198.313C127.977 193.932 120.557 178.136 125.795 199.236C125.795 199.236 114.883 170.642 123.612 200.619C123.612 200.619 115.102 177.329 120.885 201.196C120.885 201.196 112.156 185.054 118.484 202.349L110.628 205.462L91.7517 205.231L81.7135 215.608L107.464 208.46Z" fill="#FFB39F"/>
<path d="M155.473 187.36C155.473 187.36 144.562 158.766 153.291 188.744C153.291 188.744 144.78 165.453 150.563 189.32C150.563 189.32 141.834 173.178 147.399 190.588L141.397 193.586C143.58 193.817 146.417 193.701 148.708 192.894C155.691 191.395 157.655 188.859 157.655 186.553C157.655 182.172 150.235 166.376 155.473 187.36Z" fill="#FFB39F"/>
<path d="M183.296 490.825C183.296 494.976 180.132 498.435 176.204 498.55C172.276 498.55 169.003 495.207 168.893 491.056L168.566 466.613C168.566 462.462 171.73 459.003 175.658 458.888C179.586 458.888 182.86 462.231 182.969 466.382L183.296 490.825Z" fill="#091E1D"/>
<path d="M82.8044 492.094C82.8044 496.245 79.6402 499.704 75.7122 499.819C71.7842 499.819 68.5109 496.476 68.4018 492.325L68.0745 467.882C68.0745 463.731 71.2387 460.272 75.1667 460.157C79.0947 460.157 82.368 463.5 82.4771 467.651L82.8044 492.094Z" fill="#091E1D"/>
<path d="M175.222 473.415C175.331 482.87 168.13 490.595 159.183 490.71L91.9699 491.517C83.0228 491.633 75.7123 484.023 75.6032 474.568L68.4019 312.92C68.2927 303.466 75.4941 295.741 84.4412 295.625L162.456 294.588C171.403 294.472 178.713 302.082 178.823 311.536L175.222 473.415Z" fill="#322153"/>
<path d="M178.386 327.793L178.714 311.767C178.604 302.312 171.294 294.703 162.347 294.818L84.3321 295.856C75.385 295.971 68.1836 303.696 68.2927 313.151L69.0565 329.177L178.386 327.793Z" fill="#1C0C3B"/>
<path d="M191.698 307.732C191.698 310.383 189.734 312.459 187.224 312.574L59.782 314.188C57.2724 314.188 55.3084 312.113 55.1993 309.461L54.9811 292.397C54.9811 289.745 56.9451 287.67 59.4546 287.554L186.897 285.94C189.406 285.94 191.37 288.016 191.48 290.667L191.698 307.732Z" fill="#322153"/>
<path d="M124.049 355.119L138.888 345.665L135.287 355.465L124.049 355.119Z" fill="white"/>
<path d="M118.484 340.246C118.484 340.246 119.684 340.246 121.539 343.243C123.394 346.241 127.54 354.312 127.54 354.312L135.069 350.738L136.815 347.625C136.815 347.625 133.541 340.707 130.923 340.246H118.484Z" fill="white"/>
<path d="M114.338 342.321C114.338 342.321 116.629 339.669 118.484 341.053C120.339 342.437 123.612 348.202 123.612 348.202L118.266 358.117L108.664 352.468L114.338 342.321Z" fill="white"/>
<path d="M130.814 367.456L131.577 385.673L125.14 377.718L130.814 367.456Z" fill="white"/>
<path d="M145.871 369.301C145.871 369.301 145.326 370.454 141.943 370.8C138.561 371.146 129.832 371.146 129.832 371.146L129.177 379.908L130.923 383.021C130.923 383.021 138.233 383.367 139.87 381.061L145.871 369.301Z" fill="white"/>
<path d="M145.98 364.458C145.98 364.458 147.18 367.802 145.107 368.955C143.143 369.993 136.706 370.223 136.706 370.223L130.923 360.538L140.197 354.197L145.98 364.458Z" fill="white"/>
<path d="M117.829 367.226L102.553 358.693L112.264 356.849L117.829 367.226Z" fill="white"/>
<path d="M108.664 380.024C108.664 380.024 108.009 378.986 109.428 375.758C110.846 372.529 115.211 364.574 115.211 364.574L108.446 359.616L105.063 359.731C105.063 359.731 101.135 366.303 102.117 368.84L108.664 380.024Z" fill="white"/>
<path d="M112.592 382.56C112.592 382.56 109.21 381.868 109.428 379.562C109.537 377.141 112.592 371.261 112.592 371.261L123.394 370.915L123.831 382.56H112.592Z" fill="white"/>
</svg>
